<svg xmlns="http://www.w3.org/2000/svg" version="1.1" xmlns:xlink="http://www.w3.org/1999/xlink" xmlns:svgjs="http://svgjs.com/svgjs" width="78" height="80"><svg width="78" height="80" viewBox="0 0 78 80" fill="none" xmlns="http://www.w3.org/2000/svg">
<path d="M38.6757 0L77.3509 78H0L38.6757 0Z" fill="#56949F"></path>
<path d="M39.0165 24L52.0287 27.2072L62.06 36.0942L66.8123 48.625L65.197 61.9289L57.5839 72.9583L45.7173 79.186H32.3157L20.4491 72.9583L12.836 61.9289L11.2207 48.625L15.973 36.0942L26.0043 27.2072L39.0165 24Z" fill="#FAF4ED"></path>
<path d="M39.0165 41L44.1285 42.26L48.0693 45.7513L49.9363 50.6741L49.3017 55.9007L46.3108 60.2336L41.649 62.6804H36.384L31.7222 60.2336L28.7313 55.9007L28.0967 50.6741L29.9637 45.7513L33.9045 42.26L39.0165 41Z" fill="#D7827E"></path>
</svg><style>@media (prefers-color-scheme: light) { :root { filter: none; } }
</style></svg>